<svg xmlns="http://www.w3.org/2000/svg" xml:space="preserve" viewBox="0 0 120 120"><path d="M15.439 19.152V4.298A3.711 3.711 0 0 1 19.153.585a3.711 3.711 0 0 1 3.713 3.713v14.854a3.71 3.71 0 0 1-3.713 3.713 3.71 3.71 0 0 1-3.714-3.713zm63.129 3.714a3.712 3.712 0 0 0 3.714-3.713V4.298A3.712 3.712 0 0 0 78.568.585a3.712 3.712 0 0 0-3.715 3.713v14.854a3.712 3.712 0 0 0 3.715 3.714zm40.847 66.84c0 16.408-13.301 29.71-29.708 29.71-16.405 0-29.707-13.302-29.707-29.71C60 73.303 73.302 60 89.707 60c16.407 0 29.708 13.301 29.708 29.707zm-7.426 0c0-12.284-9.994-22.28-22.281-22.28-12.286 0-22.28 9.996-22.28 22.28 0 12.288 9.994 22.282 22.28 22.282 12.287 0 22.281-9.994 22.281-22.281zm-81.696-44.56H15.439V60h14.854ZM15.439 82.281h14.854V67.426H15.439ZM37.719 60h14.855V45.146H37.719Zm0 22.28h14.855V67.427H37.719ZM8.012 88.969V37.72h81.696v14.854h7.427V23.606c0-4.512-3.598-8.168-8.043-8.168h-3.098v3.715c0 4.09-3.33 7.426-7.426 7.426-4.097 0-7.427-3.336-7.427-7.426v-3.715H26.58v3.715c0 4.09-3.33 7.426-7.426 7.426-4.098 0-7.427-3.336-7.427-7.426v-3.715H8.632c-4.446 0-8.047 3.656-8.047 8.168v65.363c0 4.496 3.601 8.166 8.047 8.166h43.942v-7.428H8.632c-.337 0-.62-.348-.62-.739ZM74.853 60V45.146H60V60zm25.995 29.707h-11.14v-11.14a3.71 3.71 0 0 0-3.714-3.713 3.71 3.71 0 0 0-3.712 3.712v14.855a3.71 3.71 0 0 0 3.712 3.714h14.854a3.712 3.712 0 0 0 3.714-3.714 3.712 3.712 0 0 0-3.714-3.714z"/></svg>