<svg xmlns="http://www.w3.org/2000/svg" xml:space="preserve" viewBox="0 0 120 120"><path d="M6.438 4.11a6.203 6.203 0 0 0-6.21 6.208 6.204 6.204 0 0 0 6.21 6.211h8.712l11.551 69.33c.05.28.193.51.28.77.099.329.18.64.335.937.2.41.465.758.745 1.112.192.242.366.484.59.695.36.335.776.573 1.199.809.236.13.44.303.695.402.72.292 1.478.467 2.28.467h68.318a6.204 6.204 0 0 0 6.209-6.211 6.203 6.203 0 0 0-6.21-6.21H38.09l-1.03-6.21h70.292a6.208 6.208 0 0 0 6.148-5.328l6.21-43.47a6.22 6.22 0 0 0-1.452-4.95 6.229 6.229 0 0 0-4.696-2.143H27.744l-1.21-7.228a6.208 6.208 0 0 0-6.124-5.192Zm23.375 24.84H51.46v12.42H32.83c-.33 0-.627.093-.919.187zm27.859 0H76.3v12.42H57.67Zm24.84 0h23.89l-1.77 12.42h-22.12ZM32.918 47.58h18.543V60H34.986Zm24.754 0H76.3V60H57.67Zm24.84 0h21.226L101.968 60H82.513ZM42.146 97.26a9.315 9.315 0 0 0-9.316 9.316 9.315 9.315 0 0 0 9.316 9.315 9.315 9.315 0 0 0 9.315-9.315 9.315 9.315 0 0 0-9.315-9.316Zm55.891 0a9.315 9.315 0 0 0-9.314 9.316 9.315 9.315 0 0 0 9.314 9.315 9.315 9.315 0 0 0 9.315-9.315 9.315 9.315 0 0 0-9.315-9.316z"/></svg>